<?xml version="1.0" encoding="utf-8"?>
<!-- Generator: Adobe Illustrator 19.0.0, SVG Export Plug-In . SVG Version: 6.00 Build 0)  -->
<svg version="1.1" id="Capa_1" xmlns="http://www.w3.org/2000/svg" xmlns:xlink="http://www.w3.org/1999/xlink" x="0px" y="0px"
	 viewBox="0 0 1024 768" style="enable-background:new 0 0 1024 768;" xml:space="preserve">
<style type="text/css">
	.st0{clip-path:url(#XMLID_10_);fill:url(#XMLID_15_);}
	.st1{clip-path:url(#XMLID_10_);fill:url(#XMLID_19_);}
	.st2{clip-path:url(#XMLID_10_);fill:url(#XMLID_22_);}
	.st3{clip-path:url(#XMLID_10_);fill:url(#XMLID_24_);}
	.st4{clip-path:url(#XMLID_25_);fill:url(#XMLID_33_);}
	.st5{clip-path:url(#XMLID_25_);fill:url(#XMLID_34_);}
	.st6{clip-path:url(#XMLID_25_);fill:url(#XMLID_35_);}
	.st7{clip-path:url(#XMLID_36_);fill:url(#XMLID_37_);}
	.st8{clip-path:url(#XMLID_36_);fill:url(#XMLID_38_);}
	.st9{clip-path:url(#XMLID_36_);fill:url(#XMLID_39_);}
	.st10{clip-path:url(#XMLID_36_);fill:url(#XMLID_40_);}
	.st11{clip-path:url(#XMLID_36_);fill:url(#XMLID_41_);}
	.st12{fill:none;}
</style>
<g id="XMLID_26_">
	<g id="XMLID_27_">
		<g id="XMLID_28_">
			<defs>
				<path id="XMLID_9_" d="M-652.6,387c0,433.6,362.1,784.2,808.6,784.2S964.7,820.6,964.7,387S602.6-397.2,156.1-397.2
					S-652.6-45.2-652.6,387"/>
			</defs>
			<clipPath id="XMLID_10_">
				<use xlink:href="#XMLID_9_"  style="overflow:visible;"/>
			</clipPath>
			
				<linearGradient id="XMLID_15_" gradientUnits="userSpaceOnUse" x1="148.3591" y1="719.1131" x2="162.9055" y2="719.1131" gradientTransform="matrix(54.322 94.089 -94.089 54.322 60179.875 -53789.3398)">
				<stop  offset="0" style="stop-color:#E83725"/>
				<stop  offset="0.605" style="stop-color:#741112"/>
			</linearGradient>
			<path id="XMLID_17_" class="st0" d="M1186.9-12.4l-53.8-93.3H807.3c0.6,3.5-1.4,7.6-6,7.6h-9.9l85.7,85.7H1186.9z"/>
			
				<linearGradient id="XMLID_19_" gradientUnits="userSpaceOnUse" x1="151.7535" y1="727.321" x2="151.7751" y2="727.321" gradientTransform="matrix(54.322 94.089 -94.089 54.322 60179.875 -53789.3398)">
				<stop  offset="0" style="stop-color:#E83725"/>
				<stop  offset="0.605" style="stop-color:#741112"/>
			</linearGradient>
			<line id="XMLID_8_" class="st1" x1="-8.9" y1="-0.9" x2="-9.4" y2="-0.9"/>
			
				<linearGradient id="XMLID_22_" gradientUnits="userSpaceOnUse" x1="153.2697" y1="728.2106" x2="153.377" y2="728.2106" gradientTransform="matrix(54.322 94.089 -94.089 54.322 60179.875 -53789.3398)">
				<stop  offset="0" style="stop-color:#E83725"/>
				<stop  offset="0.605" style="stop-color:#741112"/>
			</linearGradient>
			<path id="XMLID_5_" class="st2" d="M-9.4,193.3c0.2-0.6,0.3-1.1,0.5-1.7"/>
			
				<linearGradient id="XMLID_24_" gradientUnits="userSpaceOnUse" x1="148.3591" y1="722.4191" x2="162.9055" y2="722.4191" gradientTransform="matrix(54.322 94.089 -94.089 54.322 60179.875 -53789.3398)">
				<stop  offset="0" style="stop-color:#E83725"/>
				<stop  offset="0.605" style="stop-color:#741112"/>
			</linearGradient>
			<path id="XMLID_20_" class="st3" d="M481.8,31.8c37.8,26.3,68.3,64.1,93.2,103.3c59.5,93.2,81.6,197.9,56.7,306.8
				c-11.5,54-33.2,107.9-50.7,160.1c-12.9,39.2-26.3,78.4-52.6,112.1c-17.2,21-39.6,40.3-64.9,56.5h812.1c3,0,4.6,2.2,4.8,4.5h361.3
				L1192.7-2.4H904.1c-0.8,0.9-2,1.5-3.6,1.5h-24.2c-0.1,0-0.1,0-0.2,0H433.4c8.8,6.1,17.2,12.7,25.3,19.8
				C467.5,23,474.8,27.7,481.8,31.8z"/>
		</g>
	</g>
</g>
<g id="XMLID_44_">
	<g id="XMLID_45_">
		<g id="XMLID_23_">
			<defs>
				<path id="XMLID_3_" d="M-47.8-368.1C-392.4-282.8-647,24-647,386.5c0,364.4,254.6,669.3,599.2,754.7
					c62.7,15.7,129.6,23.1,197.9,23.1c30.4,0,60.9-2.8,90.4-6C-82.4,1041.1-312.1,739-312.1,381.9c0-352.9,225.6-652.3,542.5-772.2
					c-26.3-2.8-52.6-4.2-79.8-4.2C81.8-392.6,16.3-383.8-47.8-368.1"/>
			</defs>
			<clipPath id="XMLID_25_">
				<use xlink:href="#XMLID_3_"  style="overflow:visible;"/>
			</clipPath>
			
				<linearGradient id="XMLID_33_" gradientUnits="userSpaceOnUse" x1="144.8137" y1="717.7583" x2="159.3601" y2="717.7583" gradientTransform="matrix(-68.306 -68.306 68.306 -68.306 -38609 59930.8516)">
				<stop  offset="0" style="stop-color:#341413"/>
				<stop  offset="1" style="stop-color:#A71F24"/>
			</linearGradient>
			<path id="XMLID_30_" class="st4" d="M-8.9-0.9h-0.5v766c0,6.4-10,6.4-10,0v-766h-173v771.5H-8.9V-0.9z"/>
			
				<linearGradient id="XMLID_34_" gradientUnits="userSpaceOnUse" x1="144.8137" y1="721.5049" x2="159.3601" y2="721.5049" gradientTransform="matrix(-68.306 -68.306 68.306 -68.306 -38609 59930.8516)">
				<stop  offset="0" style="stop-color:#341413"/>
				<stop  offset="1" style="stop-color:#A71F24"/>
			</linearGradient>
			<polygon id="XMLID_31_" class="st5" points="819.1,-0.9 1.1,-0.9 1.1,770.6 771.7,770.6 1183.4,361.2 			"/>
			
				<linearGradient id="XMLID_35_" gradientUnits="userSpaceOnUse" x1="144.8137" y1="724.3239" x2="159.3601" y2="724.3239" gradientTransform="matrix(-68.306 -68.306 68.306 -68.306 -38609 59930.8516)">
				<stop  offset="0" style="stop-color:#341413"/>
				<stop  offset="1" style="stop-color:#A71F24"/>
			</linearGradient>
			<path id="XMLID_18_" class="st6" d="M-8.9-20.9c0-6.4,10-6.4,10,0v8.5h806.4l-86.2-85.7H-9.4v85.7h0.5V-20.9z"/>
		</g>
	</g>
</g>
<g id="XMLID_11_">
	<g id="XMLID_12_">
		<g id="XMLID_13_">
			<defs>
				<path id="XMLID_1_" d="M296.7-55.4c184.5,69.7,314.1,237.1,314.1,433.6c0,209.4-148.5,387-352,446.5
					c64.1,29.1,135.2,46.6,210.8,46.6c264.8,0,480.2-202,491.7-456.7c0-8.8,0-16.1,0-24.9C960,126.4,740.5-85.8,468.3-85.8
					C408.3-85.8,350.2-74.3,296.7-55.4"/>
			</defs>
			<clipPath id="XMLID_36_">
				<use xlink:href="#XMLID_1_"  style="overflow:visible;"/>
			</clipPath>
			
				<linearGradient id="XMLID_37_" gradientUnits="userSpaceOnUse" x1="144.509" y1="725.508" x2="159.0553" y2="725.508" gradientTransform="matrix(52.844 -30.509 30.509 52.844 -29795.7852 -33600.4609)">
				<stop  offset="0" style="stop-color:#E83725"/>
				<stop  offset="1" style="stop-color:#711112"/>
			</linearGradient>
			<path id="XMLID_14_" class="st7" d="M801.4-110.7c8.1,0,8.1,12.6,0,12.6h-9.9l85.7,85.7h126L785.2-389.8L604.3-285.3l174.6,174.6
				H801.4z"/>
			
				<linearGradient id="XMLID_38_" gradientUnits="userSpaceOnUse" x1="144.509" y1="724.1805" x2="159.0553" y2="724.1805" gradientTransform="matrix(52.844 -30.509 30.509 52.844 -29795.7852 -33600.4609)">
				<stop  offset="0" style="stop-color:#E83725"/>
				<stop  offset="1" style="stop-color:#711112"/>
			</linearGradient>
			<polygon id="XMLID_21_" class="st8" points="-19.4,75.2 -155.8,154 -19.4,390.4 			"/>
			
				<linearGradient id="XMLID_39_" gradientUnits="userSpaceOnUse" x1="144.509" y1="724.3526" x2="159.0553" y2="724.3526" gradientTransform="matrix(52.844 -30.509 30.509 52.844 -29795.7852 -33600.4609)">
				<stop  offset="0" style="stop-color:#E83725"/>
				<stop  offset="1" style="stop-color:#711112"/>
			</linearGradient>
			<polygon id="XMLID_29_" class="st9" points="-8.9,69.1 -9.4,69.4 -9.4,407.7 -8.9,408.6 			"/>
			
				<linearGradient id="XMLID_40_" gradientUnits="userSpaceOnUse" x1="144.509" y1="731.6172" x2="159.0553" y2="731.6172" gradientTransform="matrix(52.844 -30.509 30.509 52.844 -29795.7852 -33600.4609)">
				<stop  offset="0" style="stop-color:#E83725"/>
				<stop  offset="1" style="stop-color:#711112"/>
			</linearGradient>
			<path id="XMLID_32_" class="st10" d="M1008.9-2.4H904.1c-0.8,0.9-2,1.5-3.6,1.5h-24.2c-0.1,0-0.1,0-0.2,0H112.2L1.1,63.3v362.6
				l199,344.7h937.3l238.3-137.7L1008.9-2.4z"/>
			
				<linearGradient id="XMLID_41_" gradientUnits="userSpaceOnUse" x1="144.509" y1="723.8345" x2="159.0553" y2="723.8345" gradientTransform="matrix(52.844 -30.509 30.509 52.844 -29795.7852 -33600.4609)">
				<stop  offset="0" style="stop-color:#E83725"/>
				<stop  offset="1" style="stop-color:#711112"/>
			</linearGradient>
			<path id="XMLID_16_" class="st11" d="M595.3-280.1L302.2-110.7h462.5C708.2-167.1,651.8-223.6,595.3-280.1z"/>
		</g>
	</g>
</g>
<path id="XMLID_7_" class="st12" d="M-22.8,0C-93,0-163,0-233,0"/>
<path id="XMLID_4_" class="st12" d="M878,0C587,0,295,0,4.5,0"/>
<path id="XMLID_6_" class="st12" d="M-234.1-20.4c-1.3-26.4-2.4-52.8-4.4-79.1"/>
</svg>
