<?xml version="1.0" encoding="utf-8"?>
<!-- Generator: Adobe Illustrator 19.0.0, SVG Export Plug-In . SVG Version: 6.00 Build 0)  -->
<svg version="1.1" id="Capa_1" xmlns="http://www.w3.org/2000/svg" xmlns:xlink="http://www.w3.org/1999/xlink" x="0px" y="0px"
	 viewBox="0 0 500 500" style="enable-background:new 0 0 500 500;" xml:space="preserve">
<style type="text/css">
	.st0{clip-path:url(#XMLID_14_);fill:url(#XMLID_15_);}
	.st1{clip-path:url(#XMLID_16_);fill:url(#XMLID_17_);}
	.st2{clip-path:url(#XMLID_24_);fill:#E62C25;}
	.st3{clip-path:url(#XMLID_25_);fill:url(#XMLID_26_);}
</style>
<g id="XMLID_18_">
	<g id="XMLID_19_">
		<defs>
			<path id="XMLID_23_" d="M4.2,249.7c0,131.8,110.1,238.4,245.9,238.4S496,381.5,496,249.7S385.9,11.3,250.1,11.3
				S4.2,118.3,4.2,249.7"/>
		</defs>
		<clipPath id="XMLID_14_">
			<use xlink:href="#XMLID_23_"  style="overflow:visible;"/>
		</clipPath>
		
			<linearGradient id="XMLID_15_" gradientUnits="userSpaceOnUse" x1="-291.604" y1="264.2197" x2="-287.1813" y2="264.2197" gradientTransform="matrix(54.322 94.089 94.089 -54.322 -8889.293 41831.75)">
			<stop  offset="0" style="stop-color:#E83725"/>
			<stop  offset="0.605" style="stop-color:#741112"/>
			<stop  offset="1" style="stop-color:#711112"/>
		</linearGradient>
		<path id="XMLID_20_" class="st0" d="M373.1-201.4l-575,332.1l329.5,570.5l575-332.1L373.1-201.4z M367.8,322.7
			c28.3,0,28.3,44.2,0,44.2c-14.2,0-28.7,0-42.9-0.4c-2.7,8.8-11.9,15.5-21.2,15.9c-11.5,0-18.1,1.3-29.6,3.5
			c-12.4,2.2-23.4-3.5-27.4-15.5c-0.4-1.3-0.4-2.7-0.9-4c-3.1,0-5.7,0-8.8,0c-11.9,0-19-7.5-20.8-16.4c-24.3-18.1-27-57.1-24.3-87.6
			c3.1-32.7,8.8-75.2,32.7-100.4c15.9-17.2,39.8-43.3,65-45.1c22.6-1.8,53.1,20.3,69.9,34.1c39.4,31.4,51.7,92.9,33.6,139.8
			c-5.7,15-15.9,24.8-27.9,31.8C366,322.7,366.9,322.7,367.8,322.7z"/>
	</g>
</g>
<g id="XMLID_4_">
	<g id="XMLID_5_">
		<defs>
			<path id="XMLID_1_" d="M184.1,21.9C82.3,47.6,7.2,139.9,7.2,249.3C7.2,359,82.3,451,184.1,476.7c18.5,4.8,38.2,7,58.4,7
				c1.1,0,2.2,0,3.3,0c5.8-0.1,7.5-8.1,2.2-10.6c-84-40.2-142-125.5-142-225c0-98.1,56.7-182.5,139-223.4c5.2-2.6,3.5-10.6-2.3-10.6
				c-0.1,0-0.2,0-0.2,0C222.3,14.5,202.9,17.1,184.1,21.9"/>
		</defs>
		<clipPath id="XMLID_16_">
			<use xlink:href="#XMLID_1_"  style="overflow:visible;"/>
		</clipPath>
		
			<linearGradient id="XMLID_17_" gradientUnits="userSpaceOnUse" x1="-300.2557" y1="264.1824" x2="-295.8994" y2="264.1824" gradientTransform="matrix(-68.306 -68.306 -68.306 68.306 -2142.9849 -38122.3242)">
			<stop  offset="0" style="stop-color:#341413"/>
			<stop  offset="1" style="stop-color:#A71F24"/>
		</linearGradient>
		<path id="XMLID_2_" class="st1" d="M138.1,616.9l-362.3-367.7l362.3-367.7l362.3,367.7L138.1,616.9z"/>
	</g>
</g>
<g id="XMLID_10_">
	<g id="XMLID_11_">
		<defs>
			<path id="XMLID_13_" d="M1.1,250.1c0,131.8,110.1,238.4,245.9,238.4s245.9-106.6,245.9-238.4S382.8,11.7,247,11.7
				S1.1,118.8,1.1,250.1"/>
		</defs>
		<clipPath id="XMLID_24_">
			<use xlink:href="#XMLID_13_"  style="overflow:visible;"/>
		</clipPath>
		<path id="XMLID_12_" class="st2" d="M197.9,251c0-61.9,39.8-114.5,96-134.9c-14.6-5.3-30.5-8.4-47.3-8.4
			c-77.4,0-140.6,64.1-140.6,143.3s62.8,143.3,140.6,143.3c16.4,0,32.3-3.1,46.9-8.4C237.7,365.6,197.9,312.9,197.9,251"/>
	</g>
</g>
<g id="XMLID_6_">
	<g id="XMLID_7_">
		<defs>
			<path id="XMLID_9_" d="M290.8,115.7c56.2,21.2,95.5,72.1,95.5,131.8c0,63.7-45.1,117.6-107,135.8c19.5,8.8,41.1,14.2,64.1,14.2
				c80.5,0,145.9-61.5,149.5-138.9c0-2.7,0-4.9,0-7.5C492.5,171,425.7,106.4,343,106.4C324.9,106.4,307.2,109.9,290.8,115.7"/>
		</defs>
		<clipPath id="XMLID_25_">
			<use xlink:href="#XMLID_9_"  style="overflow:visible;"/>
		</clipPath>
		
			<linearGradient id="XMLID_26_" gradientUnits="userSpaceOnUse" x1="-292.8721" y1="254.9077" x2="-288.4494" y2="254.9077" gradientTransform="matrix(52.844 -30.509 -30.509 -52.844 23503.2754 4865.9434)">
			<stop  offset="0" style="stop-color:#E83725"/>
			<stop  offset="1" style="stop-color:#711112"/>
		</linearGradient>
		<path id="XMLID_8_" class="st3" d="M153.3,179.4L439.4,13.9L619,324.9L332.8,490.3L153.3,179.4z"/>
	</g>
</g>
</svg>
