
<svg xmlns="http://www.w3.org/2000/svg" version="1.1" xmlns:xlink="http://www.w3.org/1999/xlink" preserveAspectRatio="none" x="0px" y="0px" width="100px" height="30px" viewBox="0 0 100 30">
<defs>
<linearGradient id="Gradient_1" gradientUnits="userSpaceOnUse" x1="26.075" y1="7.199999999999996" x2="25.825" y2="57.6" spreadMethod="pad">
<stop  offset="0%" stop-color="#ED1C24"/>

<stop  offset="100%" stop-color="#831C24"/>
</linearGradient>

<linearGradient id="Gradient_2" gradientUnits="userSpaceOnUse" x1="19.337500000000002" y1="55.1" x2="19.3625" y2="9.600000000000001" spreadMethod="pad">
<stop  offset="26.274509803921568%" stop-color="#3E0000"/>

<stop  offset="100%" stop-color="#AE1927"/>
</linearGradient>

<linearGradient id="Gradient_3" gradientUnits="userSpaceOnUse" x1="37.85" y1="15.65" x2="37.85" y2="-0.15000000000000036" spreadMethod="pad">
<stop  offset="0%" stop-color="#74030D"/>

<stop  offset="100%" stop-color="#EE2A24"/>
</linearGradient>

<linearGradient id="Gradient_4" gradientUnits="userSpaceOnUse" x1="51.7625" y1="24.4" x2="51.7375" y2="40.4" spreadMethod="pad">
<stop  offset="0%" stop-color="#74030D"/>

<stop  offset="100%" stop-color="#EE2A24"/>
</linearGradient>

<g id="Layer3_0_FILL">
<path fill="#710209" stroke="none" d="
M 62.55 15
Q 62.55 13.95 62.4 13.05 61.75 8.35 58.3 4.95 55.2 1.8 51.05 0.95 49.75 0.75 48.3 0.75 43.95 0.75 40.55 2.95 40.4 3 40.3 3.1 39.15 3.9 38.1 4.95 33.95 9.1 33.95 15 33.95 16.15 34.1 17.2 34.75 21.75 38.1 25.15 39.15 26.15 40.3 26.95 43.75 29.3 48.3 29.3 49.75 29.3 51.05 29 55.2 28.25 58.3 25.15 61.65 21.8 62.35 17.4 62.55 16.3 62.55 15
M 51.25 7.15
Q 52.8 7.75 54.1 9.05 56.6 11.6 56.6 15.1 56.6 18.65 54.1 21.1 52.75 22.45 51.1 23.1
L 51.05 23.1
Q 50.6 22.9 50.2 22.7 49.05 22.05 48.1 21.1 45.6 18.65 45.6 15.1 45.6 11.6 48.1 9.05 49.45 7.75 51.05 7.15
L 51.1 7.1
Q 51.2 7.15 51.25 7.15 Z"/>
</g>

<g id="CIRULO_0_Layer0_0_FILL">
<path fill="url(#Gradient_1)" stroke="none" d="
M 32.25 18.95
Q 35.2 16 38.85 14.6 35.7 13.4 32.1 13.4 24.2 13.4 18.65 18.95 13.45 24.15 13.1 31.35
L 13.1 33.55
Q 13.5 40.7 18.65 45.8 24.2 51.4 32.1 51.4 35.7 51.4 38.85 50.2 35.2 48.8 32.25 45.8 27.1 40.7 26.7 33.55
L 26.7 31.3
Q 26.7 31.15 26.75 30.95
L 26.75 30.85
Q 27.25 24 32.25 18.95 Z"/>

<path fill="url(#Gradient_2)" stroke="none" d="
M 38.85 0.65
Q 35.7 0 32.35 0 18.95 0 9.45 9.5 0 18.95 0 32.35 0 45.7 9.45 55.2 18.95 64.65 32.35 64.65 35.7 64.65 38.85 64.05 29.6 62.25 22.55 55.2 13.5 46.15 13.1 33.55
L 13.1 31.35
Q 13.45 18.6 22.55 9.5 29.6 2.4 38.85 0.65 Z"/>

<path fill="#710209" stroke="none" d="
M 64.65 33.55
Q 64.25 40.7 59.1 45.8 53.55 51.4 45.65 51.4 42.05 51.4 38.85 50.2 35.7 51.4 32.1 51.4 24.2 51.4 18.65 45.8 13.5 40.7 13.1 33.55 13.5 46.15 22.55 55.2 29.6 62.25 38.85 64.05 48.1 62.25 55.15 55.2 64.25 46.15 64.65 33.55 Z"/>

<path fill="url(#Gradient_3)" stroke="none" d="
M 45.65 13.4
Q 53.55 13.4 59.1 18.95 64.3 24.15 64.65 31.35 64.3 18.6 55.15 9.5 48.1 2.4 38.85 0.65 29.6 2.4 22.55 9.5 13.45 18.6 13.1 31.35 13.45 24.15 18.65 18.95 24.2 13.4 32.1 13.4 35.7 13.4 38.85 14.6 42.05 13.4 45.65 13.4 Z"/>

<path fill="url(#Gradient_4)" stroke="none" d="
M 59.1 18.95
Q 53.55 13.4 45.65 13.4 42.05 13.4 38.85 14.6 42.5 16 45.5 18.95 51.05 24.55 51.05 32.4 51.05 40.25 45.5 45.8 42.5 48.8 38.85 50.2 42.05 51.4 45.65 51.4 53.55 51.4 59.1 45.8 64.25 40.7 64.65 33.55
L 64.65 32.6
Q 64.65 32.5 64.65 32.4
L 64.65 31.35
Q 64.3 24.15 59.1 18.95 Z"/>
</g>

<g id="Layer1_0_FILL">
<path fill="#666666" stroke="none" d="
M 17.85 11.2
Q 17.85 9.4 17 8 16.1 6.55 14.5 5.8 12.95 4.95 11.05 4.95
L 4.05 4.95 4.05 24.5 8.3 24.5 8.3 17.5 11.05 17.5
Q 12.95 17.5 14.5 16.7 16.1 15.9 17 14.5 17.85 13.05 17.85 11.2
M 13 9.55
Q 13.7 10.25 13.7 11.2 13.7 12.2 13 12.85 12.35 13.6 11.2 13.6
L 8.3 13.6 8.3 8.85 11.2 8.85
Q 12.35 8.85 13 9.55
M 33.25 11.2
Q 33.25 9.45 32.4 8.05 31.55 6.55 30 5.8 28.5 4.95 26.6 4.95
L 19.3 4.95 19.3 24.5 23.6 24.5 23.6 17.4 24.7 17.4 29.6 24.5 34.25 24.5 34.25 23.9 29.2 16.7
Q 30.85 16.1 32 14.6 33.25 13.15 33.25 11.2
M 26.6 8.85
Q 27.7 8.85 28.35 9.45 29 10.15 29 11.15 29 12.2 28.3 12.85 27.65 13.55 26.5 13.55
L 23.6 13.55 23.6 8.85 26.6 8.85 Z"/>
</g>

<g id="Layer0_0_FILL">
<path fill="#666666" stroke="none" d="
M 71.35 8.9
Q 72 9.45 72.35 10.55
L 76.15 9
Q 75.45 7.1 73.9 5.9 72.35 4.55 69.65 4.55 67.8 4.55 66.35 5.35 64.85 6.1 64.05 7.35 63.25 8.65 63.25 10.15 63.25 12.3 64.6 13.65 65.95 14.95 67.85 15.7
L 68.95 16.05
Q 71 16.8 71.8 17.5 72.45 18.05 72.45 19 72.45 19.9 71.8 20.45 71 21 69.9 21 68.6 21 67.75 20.15 66.85 19.35 66.4 17.6
L 62.45 19.1
Q 63.3 22 65.3 23.45 67.3 24.9 69.9 24.9 71.55 24.9 73.15 24.3 74.7 23.6 75.7 22.25 76.75 20.9 76.75 18.95 76.75 16.65 75.3 15.15 73.95 13.7 71.4 12.85
L 70.2 12.45
Q 68.6 11.9 68.05 11.35 67.35 10.85 67.35 10.1 67.35 9.4 68.05 8.85 68.6 8.35 69.75 8.35 70.7 8.35 71.35 8.9
M 88.6 4.95
L 83.95 4.95 76.75 24.5 81.35 24.5 82.9 19.9 89.65 19.9 91.2 24.5 95.85 24.5 88.6 4.95
M 88.3 16.15
L 84.25 16.15 86.3 10.05 88.3 16.15 Z"/>
</g>
</defs>

<g transform="matrix( 1, 0, 0, 1, 0,0) ">
<use xlink:href="#Layer3_0_FILL"/>
</g>

<g transform="matrix( 0.446044921875, 0, 0, 0.446044921875, 33.85,0.6) ">
<g transform="matrix( 1, 0, 0, 1, 0,0) ">
<use xlink:href="#CIRULO_0_Layer0_0_FILL"/>
</g>
</g>

<g transform="matrix( 1, 0, 0, 1, 0,0) ">
<use xlink:href="#Layer1_0_FILL"/>
</g>

<g transform="matrix( 1, 0, 0, 1, 0,0) ">
<use xlink:href="#Layer0_0_FILL"/>
</g>
</svg>
